<?xml version="1.0" encoding="UTF-8" standalone="no"?>
<!DOCTYPE svg PUBLIC "-//W3C//DTD SVG 1.1//EN"
 "http://www.w3.org/Graphics/SVG/1.1/DTD/svg11.dtd">
<!-- Generated by graphviz version 2.38.0 (20140413.2041)
 -->
<!-- Title: RegExp Pages: 1 -->
<svg width="52pt" height="313pt"
 viewBox="0.00 0.00 52.00 313.00" xmlns="http://www.w3.org/2000/svg" xmlns:xlink="http://www.w3.org/1999/xlink">
<g id="graph0" class="graph" transform="scale(1 1) rotate(0) translate(4 309)">
<title>RegExp</title>
<polygon fill="white" stroke="none" points="-4,4 -4,-309 48,-309 48,4 -4,4"/>
<!-- 0 -->
<g id="node1" class="node"><title>0</title>
<ellipse fill="white" stroke="black" cx="22" cy="-113" rx="18" ry="18"/>
<text text-anchor="middle" x="22" y="-109.3" font-family="Times New Roman,serif" font-size="14.00">0</text>
</g>
<!-- 3 -->
<g id="node4" class="node"><title>3</title>
<ellipse fill="white" stroke="black" cx="22" cy="-22" rx="18" ry="18"/>
<ellipse fill="none" stroke="black" cx="22" cy="-22" rx="22" ry="22"/>
<text text-anchor="middle" x="22" y="-18.3" font-family="Times New Roman,serif" font-size="14.00">3</text>
</g>
<!-- 0&#45;&gt;3 -->
<g id="edge1" class="edge"><title>0&#45;&gt;3</title>
<path fill="none" stroke="black" d="M22,-94.8399C22,-83.4407 22,-68.1336 22,-54.5781"/>
<polygon fill="black" stroke="black" points="25.5001,-54.1905 22,-44.1905 18.5001,-54.1906 25.5001,-54.1905"/>
<text text-anchor="middle" x="25.5" y="-65.8" font-family="Times New Roman,serif" font-size="14.00">c</text>
</g>
<!-- 1 -->
<g id="node2" class="node"><title>1</title>
<ellipse fill="grey" stroke="black" cx="22" cy="-287" rx="18" ry="18"/>
<text text-anchor="middle" x="22" y="-283.3" font-family="Times New Roman,serif" font-size="14.00">1</text>
</g>
<!-- 2 -->
<g id="node3" class="node"><title>2</title>
<ellipse fill="white" stroke="black" cx="22" cy="-200" rx="18" ry="18"/>
<text text-anchor="middle" x="22" y="-196.3" font-family="Times New Roman,serif" font-size="14.00">2</text>
</g>
<!-- 1&#45;&gt;2 -->
<g id="edge2" class="edge"><title>1&#45;&gt;2</title>
<path fill="none" stroke="black" d="M22,-268.799C22,-257.163 22,-241.548 22,-228.237"/>
<polygon fill="black" stroke="black" points="25.5001,-228.175 22,-218.175 18.5001,-228.175 25.5001,-228.175"/>
<text text-anchor="middle" x="25.5" y="-239.8" font-family="Times New Roman,serif" font-size="14.00">a</text>
</g>
<!-- 2&#45;&gt;0 -->
<g id="edge3" class="edge"><title>2&#45;&gt;0</title>
<path fill="none" stroke="black" d="M22,-181.799C22,-170.163 22,-154.548 22,-141.237"/>
<polygon fill="black" stroke="black" points="25.5001,-141.175 22,-131.175 18.5001,-141.175 25.5001,-141.175"/>
<text text-anchor="middle" x="26" y="-152.8" font-family="Times New Roman,serif" font-size="14.00">b</text>
</g>
</g>
</svg>
